# xmcd
#
# Track frame offsets:
#	150
#	12178
#	26686
#	40547
#	52049
#	66728
#	79774
#	92994
#	104586
#	118366
#	131461
#	145022
#	158208
#	170665
#	183275
#	194578
#	206900
#	218679
#	230657
#	243225
#
# Disc length: 3437 seconds
#
# Revision: 8
# Processed by: cddbd v1.5.2PL0 Copyright (c) Steve Scherf et al.
# Submitted via: audiograbber 1.83.01
#
DISCID=2a0d6b14
DTITLE=Django Reinhardt - Djangology - Vol.04
DYEAR=1900
DGENRE=Jazz
TTITLE0=Django Reinhardt - Gabriel's Swing  (Combelle)
TTITLE1=Django Reinhardt - Doin' The New Low Down  (Fields - McHugh)
TTITLE2=Django Reinhardt - Body And Soul  (Green - Heyman - Sour - Eyton)
TTITLE3=Django Reinhardt - Lover Come Back To Me  (Romberg - Hammerstein)
TTITLE4=Django Reinhardt - My Melancholy Baby  (Burnett - Norton - Myabelle - B
TTITLE4=ergman)
TTITLE5=Django Reinhardt - I Got Rhythmn  (Reinhardt - Grappelly)
TTITLE6=Django Reinhardt - Billets Doux  (Reinhardt - Grappelly)
TTITLE7=Django Reinhardt - Swing From Paris  (Reinhardt - Grappelly)
TTITLE8=Django Reinhardt - Them There Eyes  (Pinkard - Tracy - Taubert)
TTITLE9=Django Reinhardt - Three Little Words  (Ruby - Calmar)
TTITLE10=Django Reinhardt - Appel Direct  (Reinhardt - Grappelly)
TTITLE11=Django Reinhardt - The Flat Foot Floogie  (Gaillard - Stewart - Green)
TTITLE12=Django Reinhardt - Lambeth Walk  (Gay - Furber - Rose)
TTITLE13=Django Reinhardt - Why Should I Care ?  (Porter)
TTITLE14=Django Reinhardt - I've Got My Love To Keep Me Warm  (Berlin)
TTITLE15=Django Reinhardt - Please Be Kind  (Cahn - Chaplin)
TTITLE16=Django Reinhardt - Louise  (Whiting - Robin)
TTITLE17=Django Reinhardt - Improvisation N°2  (Reinhardt)
TTITLE18=Django Reinhardt - Hungaria  (Reinhardt - Grappelly)
TTITLE19=Django Reinhardt - Jeepers Creepers  (Warren - Mercer)
EXTD=
EXTT0=
EXTT1=
EXTT2=
EXTT3=
EXTT4=
EXTT5=
EXTT6=
EXTT7=
EXTT8=
EXTT9=
EXTT10=
EXTT11=
EXTT12=
EXTT13=
EXTT14=
EXTT15=
EXTT16=
EXTT17=
EXTT18=
EXTT19=
PLAYORDER=
